<svg fill="none" height="24" viewBox="0 0 24 24" width="24" xmlns="http://www.w3.org/2000/svg"><g fill="#323232"><path d="m4.46785 10.2658c.00789.0714.01591.1436.02402.2165l.12564 1.1308c.08819.7941.16467 1.4828.29811 2.0324.14355.5912.3802 1.1482.87369 1.5899.4935.4417 1.0732.6154 1.67667.6927.56096.072 1.25387.0719 2.05289.0719h5.35343c.5478 0 1.0313 0 1.435-.041.4375-.0444.8625-.1428 1.2712-.3889s.6946-.5757.9386-.9415c.2251-.3376.4513-.7649.7075-1.2489l2.4895-4.70236c.8833-1.66847-.3262-3.67736-2.2141-3.67736h-10.10116c-.9828-.00005-1.82359-.0001-2.48911.09289-.33683.04707-.66689.12242-.97647.25088l-.14385-1.29463c-.12962-1.16657-1.11566-2.04912-2.28941-2.04912h-.5c-.55228 0-1 .44771-1 1 0 .55228.44772 1 1 1h.5c.15465 0 .28456.11628.30164.26998z"/><g clip-rule="evenodd" fill-rule="evenodd"><path d="m14 19.5c0-1.3807 1.1193-2.5 2.5-2.5s2.5 1.1193 2.5 2.5-1.1193 2.5-2.5 2.5-2.5-1.1193-2.5-2.5z"/><path d="m5 19.5c0-1.3807 1.11929-2.5 2.5-2.5s2.5 1.1193 2.5 2.5-1.11929 2.5-2.5 2.5-2.5-1.1193-2.5-2.5z"/></g></g></svg>